<svg xmlns="http://www.w3.org/2000/svg" width="1215" height="790" viewBox="0 0 1215 790">
  
  <path d="M289.93 479.33 L331.10 461.53 L335.35 459.54 L339.29 457.40 L342.89 455.10 L346.16 452.68 L349.09 450.13 L351.67 447.47 L353.91 444.70 L355.78 441.85 L357.30 438.92 L358.45 435.92 L359.23 432.86 L359.62 429.76 L359.64 426.62 L359.26 423.46 L358.50 420.29 L357.33 417.11 L356.20 414.78 L354.95 412.64 L353.56 410.69 L352.05 408.94 L350.41 407.38 L348.67 406.01 L346.81 404.84 L344.86 403.86 L342.80 403.07 L340.65 402.47 L338.42 402.06 L336.10 401.83 L333.71 401.80 L331.25 401.95 L328.73 402.29 L326.14 402.81 L327.58 401.43 L328.90 399.96 L330.09 398.42 L331.14 396.81 L332.07 395.14 L332.85 393.41 L333.50 391.64 L334.01 389.84 L334.38 388.00 L334.60 386.14 L334.67 384.27 L334.59 382.38 L334.36 380.50 L333.97 378.62 L333.42 376.76 L332.71 374.92 L331.47 372.41 L330.02 370.15 L328.37 368.15 L326.52 366.41 L324.48 364.94 L322.25 363.72 L319.83 362.78 L317.23 362.11 L314.45 361.71 L311.49 361.58 L308.36 361.73 L305.07 362.17 L301.61 362.89 L297.99 363.89 L294.22 365.18 L290.29 366.76 L248.99 384.62 Z M306.13 450.65 L296.77 429.00 L315.22 421.03 L316.60 420.49 L317.96 420.07 L319.29 419.78 L320.58 419.61 L321.83 419.56 L323.05 419.63 L324.21 419.82 L325.33 420.13 L326.40 420.55 L327.40 421.08 L328.35 421.73 L329.23 422.49 L330.04 423.36 L330.78 424.34 L331.44 425.42 L332.02 426.61 L332.49 427.85 L332.83 429.07 L333.03 430.28 L333.11 431.47 L333.06 432.63 L332.88 433.76 L332.58 434.86 L332.16 435.92 L331.62 436.95 L330.96 437.93 L330.18 438.86 L329.28 439.74 L328.27 440.57 L327.15 441.33 L325.92 442.04 L324.58 442.67 Z M289.17 411.41 L280.98 392.47 L296.68 385.68 L297.93 385.19 L299.15 384.81 L300.34 384.53 L301.50 384.36 L302.62 384.29 L303.69 384.33 L304.73 384.47 L305.71 384.71 L306.65 385.05 L307.53 385.49 L308.35 386.03 L309.12 386.67 L309.82 387.41 L310.46 388.24 L311.03 389.16 L311.53 390.18 L311.95 391.29 L312.26 392.39 L312.45 393.48 L312.52 394.54 L312.48 395.58 L312.33 396.60 L312.07 397.59 L311.69 398.54 L311.21 399.46 L310.62 400.34 L309.92 401.18 L309.11 401.98 L308.20 402.72 L307.19 403.41 L306.08 404.05 L304.86 404.63 Z M373.02 445.37 L397.94 437.12 L365.39 338.79 L340.47 347.04 Z M429.73 428.25 L455.25 422.12 L435.66 340.54 L464.83 333.53 L460.14 314.04 L376.28 334.19 L380.96 353.68 L410.13 346.67 Z M525.62 411.72 L530.86 410.91 L535.62 409.81 L539.94 408.45 L543.81 406.83 L547.26 404.98 L550.30 402.93 L552.94 400.68 L555.21 398.26 L557.11 395.69 L558.66 392.99 L559.87 390.18 L560.76 387.27 L561.35 384.29 L561.64 381.25 L561.66 378.19 L561.42 375.10 L560.92 372.18 L560.19 369.47 L559.22 366.95 L558.03 364.62 L556.63 362.48 L555.05 360.52 L553.30 358.72 L551.38 357.09 L549.32 355.60 L547.12 354.27 L544.81 353.07 L542.39 352.00 L539.89 351.05 L537.31 350.22 L534.67 349.50 L531.98 348.87 L511.99 344.66 L510.73 344.39 L509.52 344.09 L508.35 343.78 L507.24 343.45 L506.19 343.10 L505.20 342.71 L504.27 342.29 L503.41 341.84 L502.63 341.35 L501.92 340.81 L501.30 340.23 L500.76 339.60 L500.31 338.92 L499.95 338.19 L499.69 337.39 L499.53 336.54 L499.47 335.68 L499.51 334.83 L499.65 333.99 L499.89 333.17 L500.22 332.37 L500.66 331.60 L501.19 330.86 L501.82 330.15 L502.56 329.50 L503.39 328.88 L504.33 328.33 L505.37 327.82 L506.51 327.39 L507.75 327.01 L509.11 326.72 L510.56 326.49 L512.38 326.34 L514.15 326.30 L515.87 326.39 L517.53 326.60 L519.14 326.94 L520.68 327.40 L522.16 327.97 L523.57 328.67 L524.90 329.49 L526.17 330.43 L527.35 331.48 L528.44 332.65 L529.46 333.94 L530.38 335.35 L531.21 336.87 L531.94 338.51 L556.79 330.26 L555.30 327.24 L553.60 324.37 L551.71 321.67 L549.62 319.14 L547.33 316.81 L544.84 314.67 L542.16 312.74 L539.28 311.02 L536.21 309.54 L532.94 308.29 L529.48 307.29 L525.83 306.54 L522.00 306.07 L517.97 305.87 L513.75 305.96 L509.35 306.35 L504.74 307.07 L500.46 308.08 L496.51 309.36 L492.88 310.88 L489.58 312.63 L486.61 314.59 L483.96 316.75 L481.63 319.07 L479.62 321.55 L477.93 324.15 L476.56 326.87 L475.50 329.69 L474.77 332.58 L474.35 335.52 L474.24 338.50 L474.44 341.50 L474.89 344.33 L475.53 346.93 L476.35 349.32 L477.35 351.51 L478.52 353.50 L479.88 355.32 L481.40 356.97 L483.09 358.46 L484.94 359.82 L486.95 361.04 L489.12 362.14 L491.44 363.14 L493.91 364.03 L496.53 364.85 L499.29 365.59 L502.19 366.28 L522.37 370.77 L523.95 371.14 L525.44 371.50 L526.83 371.86 L528.12 372.24 L529.32 372.64 L530.43 373.06 L531.44 373.51 L532.35 374.01 L533.18 374.55 L533.91 375.14 L534.54 375.79 L535.09 376.52 L535.54 377.31 L535.90 378.19 L536.17 379.16 L536.35 380.22 L536.43 381.51 L536.35 382.71 L536.12 383.84 L535.76 384.88 L535.26 385.84 L534.65 386.73 L533.93 387.54 L533.10 388.27 L532.19 388.93 L531.19 389.52 L530.11 390.04 L528.98 390.49 L527.78 390.87 L526.54 391.18 L525.27 391.43 L523.97 391.62 L522.11 391.78 L520.27 391.80 L518.47 391.69 L516.70 391.44 L514.97 391.04 L513.29 390.50 L511.66 389.82 L510.09 388.99 L508.59 388.00 L507.15 386.87 L505.78 385.58 L504.50 384.13 L503.30 382.52 L502.19 380.76 L501.18 378.83 L500.27 376.73 L476.17 384.88 L477.68 388.59 L479.50 392.02 L481.62 395.18 L484.00 398.07 L486.64 400.69 L489.50 403.03 L492.57 405.11 L495.81 406.91 L499.22 408.45 L502.76 409.72 L506.42 410.72 L510.17 411.45 L513.99 411.92 L517.85 412.12 L521.74 412.05 L525.62 411.72 Z M592.14 406.21 L618.39 406.13 L618.12 321.39 L648.12 321.29 L648.06 301.05 L561.81 301.32 L561.87 321.57 L591.87 321.47 Z M727.58 309.64 L694.10 305.35 L642.01 405.11 L667.30 408.35 L677.61 388.08 L721.50 393.70 L726.22 415.90 L752.26 419.23 Z M687.34 368.80 L707.81 328.24 L717.10 372.61 Z M797.39 433.90 L801.75 434.92 L806.03 435.57 L810.23 435.87 L814.34 435.82 L818.33 435.44 L822.21 434.74 L825.96 433.72 L829.57 432.41 L833.03 430.82 L836.32 428.94 L839.44 426.81 L842.38 424.42 L845.13 421.79 L847.67 418.94 L849.99 415.86 L852.08 412.58 L828.96 399.94 L827.88 402.09 L826.70 404.05 L825.43 405.82 L824.07 407.40 L822.63 408.79 L821.13 410.01 L819.55 411.04 L817.92 411.89 L816.23 412.57 L814.50 413.09 L812.72 413.43 L810.92 413.61 L809.09 413.64 L807.24 413.50 L805.37 413.21 L803.50 412.77 L800.71 411.85 L798.13 410.70 L795.77 409.32 L793.64 407.71 L791.74 405.88 L790.07 403.85 L788.64 401.61 L787.46 399.18 L786.52 396.56 L785.83 393.76 L785.39 390.79 L785.22 387.64 L785.31 384.34 L785.67 380.88 L786.30 377.28 L787.21 373.53 L788.21 370.31 L789.39 367.29 L790.74 364.48 L792.24 361.89 L793.89 359.53 L795.68 357.39 L797.60 355.49 L799.63 353.84 L801.77 352.44 L804.01 351.29 L806.34 350.42 L808.74 349.82 L811.21 349.50 L813.74 349.47 L816.32 349.74 L818.94 350.31 L820.95 350.95 L822.80 351.74 L824.51 352.68 L826.06 353.75 L827.47 354.95 L828.74 356.28 L829.87 357.74 L830.87 359.32 L831.73 361.02 L832.46 362.84 L833.07 364.76 L833.55 366.80 L833.91 368.93 L834.16 371.17 L834.29 373.50 L834.30 375.92 L860.71 377.19 L860.66 372.88 L860.31 368.71 L859.67 364.67 L858.75 360.79 L857.53 357.06 L856.03 353.51 L854.23 350.13 L852.16 346.94 L849.79 343.94 L847.15 341.15 L844.22 338.58 L841.00 336.23 L837.51 334.11 L833.73 332.24 L829.67 330.61 L825.34 329.25 L819.77 327.99 L814.32 327.26 L809.00 327.07 L803.83 327.39 L798.83 328.22 L794.03 329.55 L789.43 331.37 L785.07 333.65 L780.95 336.41 L777.11 339.61 L773.55 343.26 L770.31 347.33 L767.39 351.82 L764.82 356.72 L762.62 362.02 L760.81 367.70 L759.41 373.70 L758.54 379.52 L758.20 385.14 L758.37 390.54 L759.05 395.72 L760.23 400.66 L761.89 405.35 L764.04 409.77 L766.65 413.91 L769.73 417.75 L773.26 421.29 L777.24 424.51 L781.65 427.39 L786.48 429.93 L791.73 432.10 L797.39 433.90 Z M843.14 446.14 L867.29 456.43 L876.80 434.12 L892.81 426.01 L902.34 471.37 L930.35 483.31 L914.59 415.07 L973.05 385.42 L946.28 374.01 L890.26 402.54 L909.16 358.19 L885.01 347.89 Z" fill="#161407" fill-rule="nonzero"/>
  <!-- BITSTACK · weight 900 -->
</svg>