<svg width="913" height="223" viewBox="0 0 913 223" fill="none" xmlns="http://www.w3.org/2000/svg">
<path d="M0 109.104C22.3249 97.7198 33.6307 92.4057 56.4766 82.5067C85.9653 69.7161 103.028 74.0665 104.617 91.1553C105.711 103.008 97.8442 116.294 85.3662 125.255C103.419 120.878 116.131 127.183 117.017 142.526C118.554 168.837 90.6543 188.14 68.3294 197.153C46.2649 206.739 35.324 211.872 13.7545 222.865C9.16971 184.962 4.58482 147.033 0 109.13V109.104ZM59.1338 128.407C68.3294 124.395 73.5395 117.466 72.8101 110.25C72.1067 103.373 65.9589 101.445 56.7111 105.509C48.0885 109.26 43.7903 111.214 35.2459 115.173C36.2618 124.317 36.7828 128.876 37.7987 138.019C46.2911 134.06 50.5633 132.158 59.1338 128.407ZM67.8605 174.229C77.8898 169.905 83.7511 162.246 82.9436 154.223C82.136 146.199 75.2327 143.698 65.1253 148.049C55.096 152.373 50.1203 154.613 40.1692 159.224C41.3415 169.67 41.9147 174.88 43.087 185.326C52.96 180.742 57.9093 178.527 67.8605 174.229Z" fill="#161407"/>
<path d="M121.655 56.9015C135.253 52.1082 142.079 49.8158 155.807 45.5176C158.829 84.0717 161.851 122.626 164.872 161.18C151.561 165.348 144.944 167.562 131.737 172.225C128.376 133.775 125.016 95.3514 121.655 56.9015Z" fill="#161407"/>
<path d="M208.324 53.3822C192.564 57.42 184.697 59.6082 169.067 64.2972C168.389 55.3621 168.051 50.9075 167.399 41.9723C205.302 31.2396 243.075 22.2785 281.759 14.8281C282.176 23.8154 282.358 28.322 282.775 37.3093C266.807 40.1227 258.835 41.6858 242.971 45.1765C244.716 76.4887 246.461 107.775 248.181 139.087C234.635 142.057 227.888 143.646 214.42 147.111C212.388 115.876 210.382 84.6424 208.35 53.4083L208.324 53.3822Z" fill="#161407"/>
<path d="M443.66 22.1988C427.509 22.4072 419.408 22.6677 403.283 23.5274C403.153 14.5141 403.1 9.98133 402.97 0.967999C442.071 -0.490807 480.652 -0.308427 519.753 1.56718C519.597 10.5805 519.544 15.1132 519.388 24.1265C503.263 23.1105 495.188 22.7719 479.01 22.3812C478.828 53.8758 478.646 85.3703 478.464 116.839C464.683 116.526 457.78 116.5 443.973 116.657C443.869 85.1619 443.765 53.6673 443.66 22.1988Z" fill="#161407"/>
<path d="M643.674 134.787C630.076 132.129 623.251 130.905 609.6 128.743C606.084 118.661 604.312 113.608 600.743 103.552C577.533 100.088 565.888 98.7332 542.574 96.6752C538.327 105.819 536.217 110.377 531.997 119.573C518.633 118.531 511.939 118.114 498.549 117.541C516.002 79.508 533.925 41.6573 552.577 4.19727C570.812 5.94262 579.903 7.03677 598.034 9.61573C613.821 51.1396 628.929 92.8979 643.674 134.787ZM592.277 79.6905C585.113 59.658 581.466 49.6547 574.094 29.7524C565.393 47.753 561.095 56.7925 552.577 74.9754C568.467 76.5384 576.412 77.4762 592.251 79.6905H592.277Z" fill="#161407"/>
<path d="M644.977 76.2209C646.566 40.7667 684.391 22.8703 717.057 32.7694C744.176 41.0012 769.158 61.9455 774.993 91.4343C761.499 89.4544 754.752 88.5947 741.18 87.0838C737.95 71.9226 729.77 60.643 714.635 56.5792C695.566 51.4734 681.655 62.1539 680.483 82.2646C679.128 105.345 691.372 121.861 712.004 127.436C725.316 131.03 736.934 127.748 740.711 114.358C753.71 120.975 760.17 124.414 772.987 131.473C764.26 151.063 740.425 158.722 709.972 151.376C675.013 142.935 643.31 113.108 644.951 76.2209H644.977Z" fill="#161407"/>
<path d="M791.089 56.9531C804.688 61.7463 811.461 64.2993 824.902 69.5874C822.897 90.3494 821.88 100.717 819.875 121.479C842.278 108.767 853.557 102.775 876.169 91.4696C890.835 98.2166 898.103 101.733 912.535 109.105C889.038 119.838 877.315 125.595 853.974 137.891C869.057 165.764 883.645 193.898 897.712 222.293C883.046 214.843 875.648 211.274 860.773 204.501C849.572 182.306 843.867 171.313 832.222 149.509C825.84 153.026 822.662 154.823 816.306 158.444C815.29 168.89 814.795 174.1 813.779 184.547C800.728 179.389 794.163 176.94 780.982 172.277C784.342 133.827 787.703 95.4031 791.063 56.9531H791.089Z" fill="#161407"/>
<path d="M286.764 96.0258C299.711 91.4149 306.224 89.2006 319.275 85.0326C323.912 97.9534 335.321 102.59 348.555 101.132C357.829 100.116 366.451 96.3123 366.269 88.2888C366.113 81.594 360.304 79.7445 349.102 77.6344C338.682 75.6807 333.472 74.7949 323.052 73.1277C302.603 69.8714 289.994 64.6093 289.213 46.9473C288.431 28.9467 305.364 9.17468 339.958 5.16296C372.521 1.35965 392.684 13.9419 400.212 32.9324C386.484 36.0584 379.633 37.7256 365.956 41.3205C362.309 31.1089 352.28 26.3417 339.021 27.9047C328.158 29.1812 322.922 34.4694 323.078 39.6273C323.26 44.9675 329.747 46.9213 338.63 48.3801C349.024 50.0994 354.234 51.0112 364.628 52.991C383.358 56.612 399.691 65.2606 399.952 83.4696C400.238 102.017 384.869 118.168 348.216 123.821C327.715 126.973 294.631 118.95 286.79 96.0517L286.764 96.0258Z" fill="#161407"/>
</svg>
